<svg width="200" height="200" fill="#000000" xmlns="http://www.w3.org/2000/svg" xmlns:xlink="http://www.w3.org/1999/xlink" version="1.1" x="0px" y="0px" viewBox="0 0 48 48" enable-background="new 0 0 48 48" xml:space="preserve"><g><path fill="#000000" d="M39.4,46.4c-0.6,0.7-1.6,1.1-2.5,1.1H11.2c-1,0-1.9-0.4-2.5-1.1c-0.6-0.7-0.9-1.7-0.8-2.6l1.6-11.8   c0.4-1.7,1.3-3.2,2.6-4.4c1.2-1.2,2.7-2.1,4.3-2.5l0.8-0.2l4.1,8c0.1,0.1,0.1,0.3,0.1,0.5h5.4c0-0.2,0-0.3,0.1-0.5l4.1-8l0.8,0.2   c1.6,0.4,3.1,1.3,4.3,2.5c1.2,1.2,2.1,2.7,2.6,4.4l0,0.1l1.6,11.7C40.3,44.7,40,45.7,39.4,46.4z M25,40V27.6c0-0.6-0.4-1-1-1   c-0.6,0-1,0.4-1,1V40c0,0.6,0.4,1,1,1C24.6,41,25,40.5,25,40z"/><path fill="#000000" d="M25.9,0.5h-3.9c-3.6,0-6.6,3.4-6.6,7.6c0,5.8,3.8,12.7,8.6,12.7s8.6-7,8.6-12.8C32.5,3.9,29.6,0.5,25.9,0.5   z"/></g></svg>